<?xml version="1.0" standalone="no"?>
<!DOCTYPE svg PUBLIC "-//W3C//DTD SVG 20010904//EN"
 "http://www.w3.org/TR/2001/REC-SVG-20010904/DTD/svg10.dtd">
<svg version="1.0" xmlns="http://www.w3.org/2000/svg"
 width="80.000000pt" height="80.000000pt" viewBox="0 0 80.000000 80.000000"
 preserveAspectRatio="xMidYMid meet">

<g transform="translate(0.000000,80.000000) scale(0.100000,-0.100000)"
fill="#000000" stroke="none">
<path d="M206 698 c23 -37 109 -154 118 -160 14 -10 246 -10 246 -1 0 9 -77
121 -103 151 -19 21 -29 22 -144 22 -97 0 -123 -3 -117 -12z"/>
<path d="M140 633 c-24 -32 -50 -66 -58 -75 -14 -16 -13 -18 6 -18 26 0 119
127 104 142 -6 6 -25 -11 -52 -49z"/>
<path d="M231 507 c-16 -16 -14 -52 5 -67 22 -19 49 9 40 43 -7 29 -29 40 -45
24z"/>
<path d="M387 472 c-63 -88 -143 -104 -213 -43 -36 32 -49 37 -58 22 -6 -9 68
-81 83 -81 23 0 16 -32 -15 -75 -55 -77 -45 -99 17 -39 49 48 78 42 120 -23
29 -47 55 -70 66 -59 3 3 -13 39 -36 81 -22 42 -41 82 -41 88 1 7 18 24 40 39
42 29 100 102 100 125 0 28 -29 11 -63 -35z"/>
<path d="M473 357 c-35 -5 -63 -14 -63 -19 0 -6 17 -7 41 -3 l41 7 -7 -75 c-4
-45 -3 -77 2 -80 6 -4 13 25 17 69 3 42 8 80 12 85 3 5 25 9 50 9 24 0 44 5
44 10 0 12 -52 11 -137 -3z"/>
<path d="M646 314 c-20 -19 -29 -53 -24 -90 3 -31 23 -40 63 -30 27 7 85 53
85 68 0 6 -16 -4 -35 -21 -33 -29 -82 -41 -98 -25 -4 4 9 24 28 45 21 23 32
45 29 54 -8 19 -28 19 -48 -1z m34 -12 c0 -5 -9 -17 -20 -27 -16 -14 -20 -15
-20 -4 0 16 19 39 32 39 4 0 8 -4 8 -8z"/>
</g>
</svg>
